# xmcd CD database file
#
# Track frame offsets:
#	182
#	14720
#	31090
#	41655
#	60510
#	76010
#	87275
#	100872
#	115845
#	128972
#	138677
#	150135
#
# Disc length: 2167 seconds
#
# Revision: 0
# Processed by: cddbd v1.4PL0 Copyright (c) Steve Scherf et al.
# Submitted via: CDex 1.50beta10
#
DISCID=8d08750c
DTITLE=Willie Nelson-Waylon Jennings - 36 Favorites-Disc 1
DYEAR=1998
DGENRE=Country
TTITLE0=Are You Ready For The Country
TTITLE1=I Ain't Living Long Like This
TTITLE2=Only Daddy That'll Walk the Line
TTITLE3=I've Always Been Crazy
TTITLE4=Lucille
TTITLE5=For Lovin' Me
TTITLE6=Amanda
TTITLE7=Luckenbach Texas
TTITLE8=Are You Sure Hank Done It This Way
TTITLE9=Theme From Dukes of Hazard
TTITLE10=Rainy Day Woman
TTITLE11=I'm A Ramblin' Man
EXTD=YEAR: 1998
EXTT0=
EXTT1=
EXTT2=
EXTT3=
EXTT4=
EXTT5=
EXTT6=
EXTT7=
EXTT8=
EXTT9=
EXTT10=
EXTT11=
PLAYORDER=
